<svg id="Layer_1" data-name="Layer 1" xmlns="http://www.w3.org/2000/svg" viewBox="0 0 841.89 202.67"><defs><style>.cls-1{fill:#231f20;}</style></defs><title>Artboard 108</title><path class="cls-1" d="M59.5,69.4H76.89c11.32,0,19.2,5,19.2,14.49,0,6.07-3.26,10.87-9.24,13.31,7.42,2.08,11.5,6.79,11.5,13.76,0,10.5-7.88,17.11-20.1,17.11H59.5Zm8.06,7.15V94.3h9.33c6.52,0,11-3.08,11-9.33,0-5.52-3.26-8.42-11-8.42Zm0,24.81v19.56H78.24c7.33,0,11.86-2.9,11.86-9.78,0-6.61-3.89-9.78-12.77-9.78Z"/><path class="cls-1" d="M113.47,66.69h22.82v54.78h17.66v6.61H110.75v-6.61h17.66V73.3H113.47Z"/><path class="cls-1" d="M195,122.73A18.24,18.24,0,0,1,180.92,129c-7.61,0-13.4-5.07-13.4-13.13,0-6.88,4.71-13.22,16.3-13.22H195V99.37c0-7-2.54-9.51-9.33-9.51-3.8,0-8.33,1.36-13.76,3.89l-2.63-6.16c5.79-3,11.5-4.8,17.66-4.8,10.41,0,15.85,4.62,15.85,16.57v28.7H195Zm0-6.16v-7.7h-11.5c-6,0-8.24,2.9-8.24,6.52,0,4.62,2.81,6.88,7.42,6.88C187.08,122.28,190.7,120.56,195,116.58Z"/><path class="cls-1" d="M223.12,106c0-15.85,7.88-23.18,22-23.18a32.54,32.54,0,0,1,14,3.08l-2.54,6.52a29.67,29.67,0,0,0-11.77-2.54c-9.51,0-13.76,5.07-13.76,16.12s3.62,15.85,14.22,15.85a27.79,27.79,0,0,0,11.59-2.44l2.26,6.34A30.62,30.62,0,0,1,245.3,129C229.64,129,223.12,121.74,223.12,106Z"/><path class="cls-1" d="M295.92,106.71l-8.51,10.05v11.32h-7.88V66.69h7.88v40.38L308,83.71h8.51l-14.94,17.48,15.66,26.89h-8.87Z"/><path class="cls-1" d="M341.64,64.42h22.64v6.34h-15V139.3h15v6.34H341.64Z"/><path class="cls-1" d="M387.64,69.4h35v7.24h-27V95.48h22.73v7.24H395.7v25.35h-8.06Z"/><path class="cls-1" d="M438.53,105.71c0-14.4,7-22.91,19-22.91s19,7.61,19,23.18c0,14.49-7,23-19,23S438.53,121.38,438.53,105.71Zm30.06.27c0-11.23-4-16.3-11-16.3s-11,5-11,16c0,11.32,3.89,16.39,11,16.39S468.59,117.12,468.59,106Z"/><path class="cls-1" d="M521.46,122.73c-5.7,4.71-9.42,6.25-14,6.25-8.6,0-13.13-5.34-13.13-15.21V83.71h7.88v29.88c0,5.89,2.26,8.24,7.15,8.24,3.17,0,7.24-1.36,12.13-5.16v-33h7.88v44.37h-7.88Z"/><path class="cls-1" d="M556.78,95.12v33H548.9V83.71h7.88v5.43c5.89-4.89,9.87-6.34,14.58-6.34,8.6,0,13.13,5.34,13.13,15.21v30.06h-7.88v-30c0-5.79-2.26-8.24-7.15-8.24C566.19,89.87,561.85,91.22,556.78,95.12Z"/><path class="cls-1" d="M630.21,123.55c-4.44,4.07-8.33,5.43-13,5.43-9.51,0-16.75-6.16-16.75-23s9.15-23.18,19.29-23.18a22.47,22.47,0,0,1,10.5,2.54V66.69h7.88v61.39h-7.88ZM619,121.92c3.62,0,7.24-1.18,11.23-4.62V91.68a28,28,0,0,0-9.24-1.9c-8.69,0-12.59,3.8-12.59,16.21C608.39,118.12,611.74,121.92,619,121.92Z"/><path class="cls-1" d="M656.2,83.71h19.38V91c7.06-6.43,12.86-8.15,21-8.15v7.79c-8.78,0-13.85,1.27-20.19,6.07v24.81h15.85v6.61h-37.4v-6.61h14V90.32H656.2Z"/><path class="cls-1" d="M730.35,145.73h-7.88l5.79-17.66h-4.62L708.71,83.71h8l13,39.66L742.4,83.71h7.79Z"/><path class="cls-1" d="M768.11,64.42h22.64v81.22H768.11V139.3h15V70.76h-15Z"/></svg>